<?xml version="1.0" encoding="utf-8"?>
<!-- Generator: Adobe Illustrator 21.0.0, SVG Export Plug-In . SVG Version: 6.00 Build 0)  -->
<svg version="1.1" id="Layer_1" xmlns="http://www.w3.org/2000/svg" xmlns:xlink="http://www.w3.org/1999/xlink" x="0px" y="0px"
	 viewBox="0 0 457.6 115.1" style="enable-background:new 0 0 457.6 115.1;" xml:space="preserve">
<style type="text/css">
	.st0{fill:#ffffff;}
</style>
<path class="st0" d="M167.5,20.3L158.1,46l-16.7,45.8l-8.5,23.2h-27.4l3.7-10.3l0,0L130.7,46H98.2c-4.4,0-8.2,2.8-9.6,6.8l0,0
	L77.7,82.6l0,0c-0.2,0.5-0.3,1.1-0.3,1.7c0,2.8,2.3,5.1,5.1,5.1h18.9l-9.4,25.7h-9.5c-17,0-30.8-13.8-30.8-30.8
	c0-3.4,0.6-6.7,1.6-9.7l0,0l0.2-0.7c0-0.1,0.1-0.2,0.1-0.3l0,0l10.9-30c5.1-13.5,18.1-23.1,33.3-23.2l0,0H167.5z M69.3,0H41.9
	L0,115.1h27.4L69.3,0z M448.3,46l9.4-25.7h-33.2L431.9,0h-27.4l-26.8,73.5l0,0c0,0.1-0.1,0.2-0.1,0.3l-0.3,0.7l0,0
	c-1,3.1-1.6,6.3-1.6,9.7c0,17,13.8,30.8,30.8,30.8h23.7l9.4-25.7h-33.1c-2.8,0-5.1-2.3-5.1-5.1c0-0.6,0.1-1.2,0.3-1.7l0,0L415.1,46
	L448.3,46z M339.5,20.3H289l-8.5,23.3l-10.9,29.9l0,0c0,0.1-0.1,0.2-0.1,0.3l-0.2,0.7l0,0c-1,3.1-1.6,6.3-1.6,9.7
	c0,17,13.8,30.8,30.8,30.8H349l9.4-25.7h-59.8c-2.8,0-5.1-2.3-5.1-5.1c0-0.6,0.1-1.2,0.3-1.7l0,0L307.1,46l32.5,0v0
	c2.8,0,5.1,2.3,5.1,5.1c0,0.4-0.1,0.8-0.2,1.2l-3,8.2h-26.1L308,79.9h53.9l6.5-18c1.3-3.3,1.9-7,1.9-10.8
	C370.3,34.1,356.5,20.3,339.5,20.3z M233.9,20.3h-50.5L175,43.5l0,0l-26,71.6h27.4L201.4,46l32.5,0v0c2.8,0,5.1,2.3,5.1,5.1
	c0,0.5-0.1,1.1-0.3,1.6L216,115.1h27.4l19.4-53.2c1.3-3.3,1.9-7,1.9-10.8C264.7,34.1,250.9,20.3,233.9,20.3z"/>
</svg>
