<svg width="110" height="20" viewBox="0 0 110 20" fill="none" xmlns="http://www.w3.org/2000/svg">
<path d="M40.3342 7.47679C36.3051 10.2306 33.3855 12.2307 28.7141 12.2307C26.6412 12.2307 25.2106 11.8249 24.0427 11.1292C22.8165 11.7669 21.5319 12.6656 19.8385 13.7961C18.6706 14.5787 17.386 15.4773 15.9846 16.318C18.0867 18.1152 21.0939 19.5066 26.0281 19.5066C34.2906 19.5066 39.9546 15.6223 44.5384 12.4916C48.5967 9.73782 51.4871 7.73767 56.1585 7.73768L58.8154 0.461801C50.6112 0.4618 44.918 4.34613 40.3342 7.47679ZM4.53968 7.73767C6.61261 7.73767 8.07242 8.14349 9.21107 8.83919C10.4081 8.20147 11.7511 7.30286 13.4153 6.17234C14.5832 5.38968 15.8386 4.49106 17.24 3.65042C15.1379 1.8532 12.1307 0.461793 7.19653 0.461792L4.53968 7.73767Z" fill="white"/>
<path d="M14.5247 7.47678C10.4665 10.2306 7.54686 12.2307 2.87548 12.2307L0.218628 19.5066C8.48114 19.5066 14.1744 15.6223 18.7582 12.4916C22.7873 9.73781 25.7069 7.73767 30.3783 7.73767C32.4512 7.73767 33.911 8.1435 35.0496 8.8392C36.2759 8.20147 37.5897 7.30286 39.2539 6.17235C40.4217 5.38968 41.6772 4.49107 43.0786 3.65043C40.9765 1.8532 37.9693 0.461798 33.0351 0.461797C24.7726 0.461796 19.0793 4.34613 14.5247 7.47678ZM49.8813 11.1292C48.655 11.7669 47.3412 12.6656 45.677 13.7961C44.5092 14.5787 43.2246 15.4484 41.8231 16.318C43.9253 18.1152 46.9325 19.5066 51.8666 19.5066L54.5235 12.2307C52.4505 12.2307 50.9907 11.8249 49.8813 11.1292Z" fill="white"/>
<path d="M91.3342 7.47679C87.3051 10.2306 84.3855 12.2307 79.7141 12.2307C77.6412 12.2307 76.2106 11.8249 75.0427 11.1292C73.8165 11.7669 72.5318 12.6656 70.8385 13.7961C69.6706 14.5787 68.386 15.4773 66.9846 16.318C69.0867 18.1152 72.0939 19.5066 77.0281 19.5066C85.2906 19.5066 90.9546 15.6223 95.5384 12.4916C99.5967 9.73782 102.487 7.73767 107.159 7.73768L109.815 0.461801C101.611 0.4618 95.918 4.34613 91.3342 7.47679ZM55.5397 7.73767C57.6126 7.73767 59.0724 8.14349 60.2111 8.83919C61.4081 8.20147 62.7511 7.30286 64.4153 6.17234C65.5832 5.38968 66.8386 4.49106 68.24 3.65042C66.1379 1.8532 63.1307 0.461793 58.1965 0.461792L55.5397 7.73767Z" fill="white"/>
<path d="M65.5247 7.47678C61.4665 10.2306 58.5469 12.2307 53.8755 12.2307L51.2186 19.5066C59.4811 19.5066 65.1744 15.6223 69.7582 12.4916C73.7873 9.73781 76.7069 7.73767 81.3783 7.73767C83.4512 7.73767 84.911 8.1435 86.0496 8.8392C87.2759 8.20147 88.5897 7.30286 90.2539 6.17235C91.4217 5.38968 92.6772 4.49107 94.0786 3.65043C91.9765 1.8532 88.9693 0.461798 84.0351 0.461797C75.7726 0.461796 70.0793 4.34613 65.5247 7.47678ZM100.881 11.1292C99.655 11.7669 98.3412 12.6656 96.677 13.7961C95.5092 14.5787 94.2246 15.4484 92.8231 16.318C94.9253 18.1152 97.9325 19.5066 102.867 19.5066L105.523 12.2307C103.451 12.2307 101.991 11.8249 100.881 11.1292Z" fill="white"/>
</svg>
